<?xml version="1.0" encoding="UTF-8"?>
<svg id="Layer_1" data-name="Layer 1" xmlns="http://www.w3.org/2000/svg" viewBox="0 0 508 118">
  <defs>
    <style>
      .cls-1 {
        fill: #00adee;
      }

      .cls-2 {
        fill: #eb008b;
      }

      .cls-3 {
        fill: #ec1c24;
      }

      .cls-4 {
        fill: #fff100;
      }

      .cls-5 {
        fill: #00a551;
      }

      .cls-6 {
        fill: #231f20;
      }

      .cls-7 {
        fill: #2e3191;
      }

      .cls-8 {
        opacity: .6;
      }

      .cls-9 {
        opacity: .5;
      }
    </style>
  </defs>
  <g class="cls-9">
    <path class="cls-6" d="M61.66,.22H126.59s-32.07,103.99-32.07,103.99L61.66,.22Zm-59.22,0H34.64c12.97,0,24.44,8.4,28.36,20.76l28.66,90.38H58.4c-12.43,0-23.42-8.06-27.16-19.91L2.44,.22Z"/>
    <path class="cls-2" d="M184.74,.22V111.36h-52.39V.22h52.39Zm4.76,0h4.45c32.55,0,51.44,20.16,51.44,55.09s-18.89,56.04-50.96,56.04h-4.92V.22Z"/>
    <path class="cls-7" d="M236.64,111.36l31.75-101.45,24.17,78c3.61,11.64-5.1,23.45-17.29,23.45h-38.64ZM322.22,.22l23.81,77-38.42,34.14h-2.54L270.62,.22h51.6Zm62.4,12.81l30.48,98.33h-53.19L327.46,.22h39.78c7.97,0,15.02,5.19,17.38,12.81Z"/>
    <path class="cls-1" d="M417.03,.22h22.25c16.65,0,30.15,13.5,30.15,30.15v39.94h-52.39V.22Zm0,74.84h90.97v36.29h-54.68c-20.04,0-36.29-16.25-36.29-36.29h0Z"/>
  </g>
  <g class="cls-8">
    <path class="cls-1" d="M59.18,6.63H124.12s-32.07,103.99-32.07,103.99L59.18,6.63Zm-59.22,0H32.16c12.97,0,24.44,8.4,28.36,20.76l28.66,90.38H55.93c-12.43,0-23.42-8.06-27.16-19.91L-.04,6.63Z"/>
    <path class="cls-3" d="M182.26,6.63V117.77h-52.39V6.63h52.39Zm4.76,0h4.45c32.55,0,51.44,20.16,51.44,55.09s-18.89,56.04-50.96,56.04h-4.92V6.63Z"/>
    <path class="cls-4" d="M234.17,117.77l31.75-101.45,24.17,78c3.61,11.64-5.1,23.45-17.29,23.45h-38.64ZM319.74,6.63l23.81,77-38.42,34.14h-2.54L268.14,6.63h51.6Zm62.4,12.81l30.48,98.33h-53.19L324.98,6.63h39.78c7.97,0,15.02,5.19,17.38,12.81Z"/>
    <path class="cls-5" d="M414.55,6.63h22.25c16.65,0,30.15,13.5,30.15,30.15v39.94h-52.39V6.63Zm0,74.84h90.97v36.29h-54.68c-20.04,0-36.29-16.25-36.29-36.29h0Z"/>
  </g>
</svg>